# xmcd
# 
# Track frame offsets:
#     150
#     17987
#     35582
#     49857
#     66420
#     81932
#     102237
#     120487
#     134947
#     148865
#     165227
#     187007
# 
# Disc length: 2755
# 
# Revision: 6
# Processed by: cddbd v1.5.2PL0 Copyright (c) Steve Scherf et al.
# Submitted via: BonkEnc v1.0.6
# 
DISCID=b30ac10c
DTITLE=Tom Waits - Closing Time
DYEAR=1973
DGENRE=Rock
TTITLE0=Ol' 55
TTITLE1=I Hope That I Don't Fall In Love With You
TTITLE2=Virginia Avenue
TTITLE3=Old Shoes (& Picture Postcards)
TTITLE4=Midnight Lullaby
TTITLE5=Martha
TTITLE6=Rosie
TTITLE7=Lonely
TTITLE8=Ice Cream Man
TTITLE9=Little Trip To Heaven (On The Wings Of Your Love)
TTITLE10=Grapefruit Moon
TTITLE11=Closing Time
EXTD=YEAR: 1973
EXTT0=
EXTT1=
EXTT2=
EXTT3=
EXTT4=
EXTT5=
EXTT6=
EXTT7=
EXTT8=
EXTT9=
EXTT10=
EXTT11=
PLAYORDER=
